<svg height="511pt" viewBox="0 0 511 511.99956" width="511pt" xmlns="http://www.w3.org/2000/svg"><path d="m461.175781 126.890625c-.574219-4.230469-4.1875-7.382813-8.457031-7.382813h-21.527344c-37.578125-96.492187-146.265625-144.253906-242.757812-106.675781-48.925782 19.054688-87.625 57.75-106.675782 106.675781h-21.527343c-4.269531 0-7.878907 3.152344-8.457031 7.382813l-51.195313 375.425781c-.6367188 4.667969 2.632813 8.96875 7.304687 9.605469.378907.050781.765626.078125 1.152344.078125h494.878906c4.714844 0 8.535157-3.820312 8.535157-8.53125 0-.386719-.027344-.773438-.078125-1.152344zm-204.703125-109.769531c67.828125.0625 129.191406 40.246094 156.367188 102.386718h-9.472656c-37.5625-81.125-133.78125-116.441406-214.910157-78.875-34.804687 16.113282-62.761719 44.066407-78.875 78.875h-9.472656c27.175781-62.140624 88.539063-102.324218 156.363281-102.386718zm127.894532 102.386718h-255.785157c37.617188-70.632812 125.367188-97.398437 196-59.78125 25.429688 13.539063 46.242188 34.355469 59.785157 59.78125zm-365.554688 375.425782 48.867188-358.359375h377.59375l48.863281 358.359375zm0 0"/></svg>